<mxfile host="app.diagrams.net" modified="2021-08-17T12:31:34.074Z" agent="5.0 (Windows NT 10.0; Win64; x64) AppleWebKit/537.36 (KHTML, like Gecko) Chrome/92.0.4515.131 Safari/537.36" etag="wHw2TxKzBKAwaHe5fFO_" version="14.9.7" type="github">
  <diagram name="Page-1" id="2c0d36ab-eaac-3732-788b-9136903baeff">
    <mxGraphModel dx="2100" dy="1089" grid="1" gridSize="10" guides="1" tooltips="1" connect="1" arrows="1" fold="1" page="1" pageScale="1.5" pageWidth="1169" pageHeight="827" background="#FFFFFF" math="0" shadow="0">
      <root>
        <mxCell id="0" />
        <mxCell id="1" parent="0" />
        <mxCell id="2" value="홈페이지&#xa;(index)" style="rounded=1;fillColor=#23445D;gradientColor=none;strokeColor=none;fontColor=#FFFFFF;fontStyle=1;fontFamily=Tahoma;fontSize=15;" parent="1" vertex="1">
          <mxGeometry x="782" y="185.5" width="190" height="80" as="geometry" />
        </mxCell>
        <mxCell id="73" value="" style="edgeStyle=elbowEdgeStyle;elbow=horizontal;strokeWidth=2;rounded=0" parent="1" target="30" edge="1">
          <mxGeometry x="-23" y="135.5" width="100" height="100" as="geometry">
            <mxPoint x="592" y="485.5" as="sourcePoint" />
            <mxPoint x="77" y="135.5" as="targetPoint" />
            <Array as="points">
              <mxPoint x="567" y="535.5" />
            </Array>
          </mxGeometry>
        </mxCell>
        <mxCell id="74" value="" style="edgeStyle=elbowEdgeStyle;elbow=horizontal;strokeWidth=2;rounded=0" parent="1" target="31" edge="1">
          <mxGeometry x="-23" y="135.5" width="100" height="100" as="geometry">
            <mxPoint x="592" y="485.5" as="sourcePoint" />
            <mxPoint x="77" y="135.5" as="targetPoint" />
            <Array as="points">
              <mxPoint x="567" y="575.5" />
            </Array>
          </mxGeometry>
        </mxCell>
        <mxCell id="CkdO9dEeyM24k6zbKlpi-146" value="로그인" style="rounded=1;fillColor=#23445D;gradientColor=none;strokeColor=none;fontColor=#FFFFFF;fontStyle=1;fontFamily=Tahoma;fontSize=14" vertex="1" parent="1">
          <mxGeometry x="300" y="360" width="190" height="80" as="geometry" />
        </mxCell>
        <mxCell id="CkdO9dEeyM24k6zbKlpi-156" value="게시판" style="rounded=1;fillColor=#23445D;gradientColor=none;strokeColor=none;fontColor=#FFFFFF;fontStyle=1;fontFamily=Tahoma;fontSize=14" vertex="1" parent="1">
          <mxGeometry x="1100" y="350" width="190" height="80" as="geometry" />
        </mxCell>
        <mxCell id="CkdO9dEeyM24k6zbKlpi-158" value="" style="endArrow=classic;html=1;fontSize=15;entryX=0.5;entryY=0;entryDx=0;entryDy=0;exitX=0.5;exitY=1;exitDx=0;exitDy=0;" edge="1" parent="1" source="2" target="CkdO9dEeyM24k6zbKlpi-146">
          <mxGeometry width="50" height="50" relative="1" as="geometry">
            <mxPoint x="827" y="370" as="sourcePoint" />
            <mxPoint x="877" y="320" as="targetPoint" />
            <Array as="points">
              <mxPoint x="877" y="320" />
              <mxPoint x="395" y="320" />
            </Array>
          </mxGeometry>
        </mxCell>
        <mxCell id="CkdO9dEeyM24k6zbKlpi-159" value="" style="endArrow=classic;html=1;fontSize=15;entryX=0.5;entryY=0;entryDx=0;entryDy=0;exitX=0.5;exitY=1;exitDx=0;exitDy=0;" edge="1" parent="1" source="2" target="CkdO9dEeyM24k6zbKlpi-156">
          <mxGeometry width="50" height="50" relative="1" as="geometry">
            <mxPoint x="890" y="560" as="sourcePoint" />
            <mxPoint x="940" y="510" as="targetPoint" />
            <Array as="points">
              <mxPoint x="877" y="320" />
              <mxPoint x="1195" y="320" />
            </Array>
          </mxGeometry>
        </mxCell>
        <mxCell id="CkdO9dEeyM24k6zbKlpi-161" value="관리자" style="rounded=1;fillColor=#23445D;gradientColor=none;strokeColor=none;fontColor=#FFFFFF;fontStyle=1;fontFamily=Tahoma;fontSize=14" vertex="1" parent="1">
          <mxGeometry x="90" y="480" width="190" height="80" as="geometry" />
        </mxCell>
        <mxCell id="CkdO9dEeyM24k6zbKlpi-162" value="" style="endArrow=classic;html=1;fontSize=15;exitX=0;exitY=0.5;exitDx=0;exitDy=0;entryX=0.5;entryY=0;entryDx=0;entryDy=0;" edge="1" parent="1" source="CkdO9dEeyM24k6zbKlpi-146" target="CkdO9dEeyM24k6zbKlpi-161">
          <mxGeometry relative="1" as="geometry">
            <mxPoint x="870" y="540" as="sourcePoint" />
            <mxPoint x="290" y="400" as="targetPoint" />
            <Array as="points">
              <mxPoint x="185" y="400" />
            </Array>
          </mxGeometry>
        </mxCell>
        <mxCell id="CkdO9dEeyM24k6zbKlpi-163" value="&lt;font style=&quot;font-size: 20px&quot;&gt;&lt;b&gt;9등급일 경우&lt;/b&gt;&lt;/font&gt;" style="edgeLabel;resizable=0;html=1;align=center;verticalAlign=middle;" connectable="0" vertex="1" parent="CkdO9dEeyM24k6zbKlpi-162">
          <mxGeometry relative="1" as="geometry">
            <mxPoint x="-8" y="-20" as="offset" />
          </mxGeometry>
        </mxCell>
        <mxCell id="CkdO9dEeyM24k6zbKlpi-165" value="회원가입" style="rounded=1;fillColor=#23445D;gradientColor=none;strokeColor=none;fontColor=#FFFFFF;fontStyle=1;fontFamily=Tahoma;fontSize=14" vertex="1" parent="1">
          <mxGeometry x="300" y="480" width="190" height="80" as="geometry" />
        </mxCell>
        <mxCell id="CkdO9dEeyM24k6zbKlpi-166" value="ID/PW 찾기" style="rounded=1;fillColor=#23445D;gradientColor=none;strokeColor=none;fontColor=#FFFFFF;fontStyle=1;fontFamily=Tahoma;fontSize=14" vertex="1" parent="1">
          <mxGeometry x="300" y="600" width="190" height="80" as="geometry" />
        </mxCell>
        <mxCell id="CkdO9dEeyM24k6zbKlpi-167" value="" style="endArrow=classic;html=1;fontSize=15;exitX=1;exitY=0.5;exitDx=0;exitDy=0;" edge="1" parent="1" source="CkdO9dEeyM24k6zbKlpi-146">
          <mxGeometry width="50" height="50" relative="1" as="geometry">
            <mxPoint x="890" y="640" as="sourcePoint" />
            <mxPoint x="490" y="640" as="targetPoint" />
            <Array as="points">
              <mxPoint x="540" y="400" />
              <mxPoint x="540" y="640" />
            </Array>
          </mxGeometry>
        </mxCell>
        <mxCell id="CkdO9dEeyM24k6zbKlpi-168" value="" style="endArrow=classic;html=1;fontSize=15;exitX=1;exitY=0.5;exitDx=0;exitDy=0;entryX=1;entryY=0.5;entryDx=0;entryDy=0;entryPerimeter=0;" edge="1" parent="1" source="CkdO9dEeyM24k6zbKlpi-146" target="CkdO9dEeyM24k6zbKlpi-165">
          <mxGeometry width="50" height="50" relative="1" as="geometry">
            <mxPoint x="890" y="640" as="sourcePoint" />
            <mxPoint x="500" y="520" as="targetPoint" />
            <Array as="points">
              <mxPoint x="540" y="400" />
              <mxPoint x="540" y="520" />
            </Array>
          </mxGeometry>
        </mxCell>
        <mxCell id="CkdO9dEeyM24k6zbKlpi-169" value="푸드   " style="rounded=1;fillColor=#23445D;gradientColor=none;strokeColor=none;fontColor=#FFFFFF;fontStyle=1;fontFamily=Tahoma;fontSize=14" vertex="1" parent="1">
          <mxGeometry x="730" y="480" width="190" height="80" as="geometry" />
        </mxCell>
        <mxCell id="CkdO9dEeyM24k6zbKlpi-170" value="스포츠" style="rounded=1;fillColor=#23445D;gradientColor=none;strokeColor=none;fontColor=#FFFFFF;fontStyle=1;fontFamily=Tahoma;fontSize=14" vertex="1" parent="1">
          <mxGeometry x="1007" y="480" width="190" height="80" as="geometry" />
        </mxCell>
        <mxCell id="CkdO9dEeyM24k6zbKlpi-171" value="게임" style="rounded=1;fillColor=#23445D;gradientColor=none;strokeColor=none;fontColor=#FFFFFF;fontStyle=1;fontFamily=Tahoma;fontSize=14" vertex="1" parent="1">
          <mxGeometry x="1280" y="480" width="190" height="80" as="geometry" />
        </mxCell>
        <mxCell id="CkdO9dEeyM24k6zbKlpi-172" value="유머" style="rounded=1;fillColor=#23445D;gradientColor=none;strokeColor=none;fontColor=#FFFFFF;fontStyle=1;fontFamily=Tahoma;fontSize=14" vertex="1" parent="1">
          <mxGeometry x="1520" y="480" width="190" height="80" as="geometry" />
        </mxCell>
        <mxCell id="CkdO9dEeyM24k6zbKlpi-173" value="상세보기" style="rounded=1;fillColor=#23445D;gradientColor=none;strokeColor=none;fontColor=#FFFFFF;fontStyle=1;fontFamily=Tahoma;fontSize=14" vertex="1" parent="1">
          <mxGeometry x="730" y="600" width="190" height="80" as="geometry" />
        </mxCell>
      </root>
    </mxGraphModel>
  </diagram>
</mxfile>
